<?xml version="1.0" encoding="utf-8"?>
<!-- Generator: Adobe Illustrator 16.0.4, SVG Export Plug-In . SVG Version: 6.00 Build 0)  -->
<!DOCTYPE svg PUBLIC "-//W3C//DTD SVG 1.1//EN" "http://www.w3.org/Graphics/SVG/1.1/DTD/svg11.dtd">
<svg version="1.1" id="Layer_1" xmlns="http://www.w3.org/2000/svg" xmlns:xlink="http://www.w3.org/1999/xlink" x="0px" y="0px"
	 width="56.692px" height="65.194px" viewBox="-7.161 0.178 56.692 65.194" enable-background="new -7.161 0.178 56.692 65.194"
	 xml:space="preserve">
<g transform="translate(480,300)">
	
		<text transform="matrix(0.5369 0.5489 -0.3099 0.9508 -456.7327 -241.3357)" fill="#B5CF6B" font-family="'Impact'" font-size="3.1331">area</text>
	
		<text transform="matrix(0.4037 -1.2383 0.6992 0.7149 -450.8225 -268.2922)" fill="#CEDB9C" font-family="'Impact'" font-size="6.8406">data</text>
	
		<text transform="matrix(0.4037 1.2383 -0.6992 0.7149 -447.511 -252.8171)" fill="#E7969C" font-family="'Impact'" font-size="0.7517">code</text>
	
		<text transform="matrix(0.5369 -0.5489 0.3099 0.9508 -461.0803 -278.032)" fill="#7B4173" font-family="'Impact'" font-size="4.3079">use</text>
	
		<text transform="matrix(0.5369 -0.5489 0.3099 0.9508 -443.9934 -251.1609)" fill="#AD494A" font-family="'Impact'" font-size="0.9791">Central</text>
	
		<text transform="matrix(0.5369 -0.5489 0.3099 0.9508 -456.0813 -260.1765)" fill="#B5CF6B" font-family="'Impact'" font-size="0.9791">making</text>
	
		<text transform="matrix(0.5369 -0.5489 0.3099 0.9508 -482.1931 -245.4929)" fill="#9C9EDE" font-family="'Impact'" font-size="9.7907">research</text>
	
		<text transform="matrix(0.4037 -1.2383 0.6992 0.7149 -479.8049 -263.2781)" fill="#8CA252" font-family="'Impact'" font-size="6.2392">cell</text>
	
		<text transform="matrix(0.5369 -0.5489 0.3099 0.9508 -484.5657 -282.4202)" fill="#B5CF6B" font-family="'Impact'" font-size="4.3079">NGS</text>
	
		<text transform="matrix(0.4037 -1.2383 0.6992 0.7149 -468.4417 -278.2234)" fill="#CEDB9C" font-family="'Impact'" font-size="2.4055">unique</text>
	
		<text transform="matrix(0.4037 -1.2383 0.6992 0.7149 -465.9309 -245.4421)" fill="#BD9E39" font-family="'Impact'" font-size="2.4055">huge</text>
	
		<text transform="matrix(0.5369 0.5489 -0.3099 0.9508 -467.6482 -277.2634)" fill="#D6616B" font-family="'Impact'" font-size="6.4619">1</text>
	
		<text transform="matrix(0.4037 -1.2383 0.6992 0.7149 -448.0813 -257.9333)" fill="#E7969C" font-family="'Impact'" font-size="3.3076">2</text>
	
		<text transform="matrix(0.4037 -1.2383 0.6992 0.7149 -461.8977 -255.4792)" fill="#7B4173" font-family="'Impact'" font-size="4.0593">3</text>
	
		<text transform="matrix(0.4037 -1.2383 0.6992 0.7149 -447.5178 -257.1892)" fill="#A55194" font-family="'Impact'" font-size="0.7517">Recent</text>
	
		<text transform="matrix(0.4037 -1.2383 0.6992 0.7149 -450.0491 -266.7898)" fill="#CE6DBD" font-family="'Impact'" font-size="0.7517">advances</text>
	
		<text transform="matrix(0.5369 0.5489 -0.3099 0.9508 -467.1882 -274.3074)" fill="#DE9ED6" font-family="'Impact'" font-size="0.9791">nextgeneration</text>
	<text transform="matrix(0.5646 0 0 1 -467.9392 -271.9675)" fill="#5254A3" font-family="'Impact'" font-size="1.0748">posed</text>
	
		<text transform="matrix(0.4037 1.2383 -0.6992 0.7149 -444.4729 -270.8328)" fill="#6B6ECF" font-family="'Impact'" font-size="0.7517">terms</text>
	<text transform="matrix(0.5646 0 0 1 -442.5247 -251.115)" fill="#637939" font-family="'Impact'" font-size="1.0748">interpretation</text>
	
		<text transform="matrix(0.5369 0.5489 -0.3099 0.9508 -447.4797 -261.5242)" fill="#8CA252" font-family="'Impact'" font-size="0.9791">amount</text>
	
		<text transform="matrix(0.4037 1.2383 -0.6992 0.7149 -456.2239 -253.9539)" fill="#B5CF6B" font-family="'Impact'" font-size="0.7517">generated</text>
	
		<text transform="matrix(0.4037 1.2383 -0.6992 0.7149 -459.6926 -275.0427)" fill="#8C6D31" font-family="'Impact'" font-size="0.7517">lies</text>
	
		<text transform="matrix(0.5369 0.5489 -0.3099 0.9508 -478.9973 -278.9167)" fill="#BD9E39" font-family="'Impact'" font-size="0.9791">intersection</text>
	
		<text transform="matrix(0.5369 -0.5489 0.3099 0.9508 -463.8069 -262.7654)" fill="#843C39" font-family="'Impact'" font-size="0.9791">immense</text>
	
		<text transform="matrix(0.4037 1.2383 -0.6992 0.7149 -474.3274 -241.3533)" fill="#AD494A" font-family="'Impact'" font-size="0.7517">contributions</text>
	
		<text transform="matrix(0.5369 0.5489 -0.3099 0.9508 -466.7576 -288.9148)" fill="#D6616B" font-family="'Impact'" font-size="0.9791">addressing</text>
	
		<text transform="matrix(0.5369 -0.5489 0.3099 0.9508 -444.2102 -280.7473)" fill="#E7969C" font-family="'Impact'" font-size="0.9791">big</text>
	
		<text transform="matrix(0.4037 -1.2383 0.6992 0.7149 -469.4866 -255.1833)" fill="#7B4173" font-family="'Impact'" font-size="0.7517">focuses</text>
	
		<text transform="matrix(0.5369 0.5489 -0.3099 0.9508 -486.158 -250.5847)" fill="#A55194" font-family="'Impact'" font-size="0.9791">specifically</text>
	
		<text transform="matrix(0.5369 0.5489 -0.3099 0.9508 -460.2629 -247.4832)" fill="#CE6DBD" font-family="'Impact'" font-size="0.9791">develop</text>
	
		<text transform="matrix(0.5369 0.5489 -0.3099 0.9508 -453.177 -269.4978)" fill="#DE9ED6" font-family="'Impact'" font-size="0.9791">andor</text>
	
		<text transform="matrix(0.5369 -0.5489 0.3099 0.9508 -469.7229 -266.9734)" fill="#393B79" font-family="'Impact'" font-size="0.9791">statistical</text>
	
		<text transform="matrix(0.5369 -0.5489 0.3099 0.9508 -439.9895 -263.0818)" fill="#5254A3" font-family="'Impact'" font-size="0.9791">techniques</text>
	
		<text transform="matrix(0.5369 0.5489 -0.3099 0.9508 -439.5461 -275.4216)" fill="#6B6ECF" font-family="'Impact'" font-size="0.9791">interpret</text>
	
		<text transform="matrix(0.4037 -1.2383 0.6992 0.7149 -452.1047 -279.8977)" fill="#9C9EDE" font-family="'Impact'" font-size="0.7517">complex</text>
	
		<text transform="matrix(0.4037 -1.2383 0.6992 0.7149 -446.8362 -285.45)" fill="#8CA252" font-family="'Impact'" font-size="0.7517">datasets</text>
	
		<text transform="matrix(0.4037 1.2383 -0.6992 0.7149 -457.1409 -267.9304)" fill="#B5CF6B" font-family="'Impact'" font-size="0.7517">despite</text>
	
		<text transform="matrix(0.5369 -0.5489 0.3099 0.9508 -443.3313 -281.803)" fill="#BD9E39" font-family="'Impact'" font-size="0.9791">arises</text>
	
		<text transform="matrix(0.5369 -0.5489 0.3099 0.9508 -474.1008 -262.7107)" fill="#843C39" font-family="'Impact'" font-size="0.9791">epigenetic</text>
	<text transform="matrix(0.5646 0 0 1 -437.7297 -263.6912)" fill="#E7969C" font-family="'Impact'" font-size="1.0748">identity</text>
	
		<text transform="matrix(0.4037 1.2383 -0.6992 0.7149 -459.178 -272.2502)" fill="#7B4173" font-family="'Impact'" font-size="0.7517">alterations</text>
	<text transform="matrix(0.5646 0 0 1 -450.6985 -295.2917)" fill="#A55194" font-family="'Impact'" font-size="3.4395">drive</text>
	
		<text transform="matrix(0.5369 0.5489 -0.3099 0.9508 -461.3992 -277.4519)" fill="#CE6DBD" font-family="'Impact'" font-size="0.9791">cellular</text>
	
		<text transform="matrix(0.4037 1.2383 -0.6992 0.7149 -434.0891 -271.053)" fill="#393B79" font-family="'Impact'" font-size="0.7517">aberrant</text>
	
		<text transform="matrix(0.4037 -1.2383 0.6992 0.7149 -473.4861 -266.6443)" fill="#5254A3" font-family="'Impact'" font-size="0.7517">formation</text>
	
		<text transform="matrix(0.4037 -1.2383 0.6992 0.7149 -472.1584 -247.7292)" fill="#6B6ECF" font-family="'Impact'" font-size="0.7517">cancer</text>
	
		<text transform="matrix(0.4037 -1.2383 0.6992 0.7149 -470.863 -265.0359)" fill="#9C9EDE" font-family="'Impact'" font-size="4.5854">cells</text>
	
		<text transform="matrix(0.4037 -1.2383 0.6992 0.7149 -447.0266 -246.2009)" fill="#637939" font-family="'Impact'" font-size="0.7517">fundamental</text>
	
		<text transform="matrix(0.4037 -1.2383 0.6992 0.7149 -444.3381 -287.8264)" fill="#8CA252" font-family="'Impact'" font-size="0.7517">exploration</text>
	
		<text transform="matrix(0.5369 -0.5489 0.3099 0.9508 -474.7219 -248.0066)" fill="#B5CF6B" font-family="'Impact'" font-size="4.3079">lead</text>
	
		<text transform="matrix(0.5369 -0.5489 0.3099 0.9508 -462.366 -281.0725)" fill="#CEDB9C" font-family="'Impact'" font-size="0.9791">better</text>
	
		<text transform="matrix(0.4037 -1.2383 0.6992 0.7149 -443.0979 -289.2712)" fill="#8C6D31" font-family="'Impact'" font-size="0.7517">prognosis</text>
	
		<text transform="matrix(0.5369 -0.5489 0.3099 0.9508 -485.925 -243.8757)" fill="#BD9E39" font-family="'Impact'" font-size="0.9791">personalized</text>
	
		<text transform="matrix(0.5369 0.5489 -0.3099 0.9508 -486.092 -270.7522)" fill="#E7BA52" font-family="'Impact'" font-size="0.9791">medicine</text>
	<text transform="matrix(0.5646 0 0 1 -441.1633 -257.6716)" fill="#843C39" font-family="'Impact'" font-size="7.6314">also</text>
	
		<text transform="matrix(0.5369 -0.5489 0.3099 0.9508 -464.7512 -260.325)" fill="#AD494A" font-family="'Impact'" font-size="0.9791">raise</text>
	
		<text transform="matrix(0.5369 -0.5489 0.3099 0.9508 -451.5286 -245.6677)" fill="#D6616B" font-family="'Impact'" font-size="0.9791">several</text>
	
		<text transform="matrix(0.5369 -0.5489 0.3099 0.9508 -464.1711 -287.6487)" fill="#7B4173" font-family="'Impact'" font-size="4.3079">due</text>
	
		<text transform="matrix(0.5369 -0.5489 0.3099 0.9508 -475.0833 -295.2205)" fill="#CE6DBD" font-family="'Impact'" font-size="0.9791">inherently</text>
	
		<text transform="matrix(0.5369 -0.5489 0.3099 0.9508 -449.2043 -235.2791)" fill="#DE9ED6" font-family="'Impact'" font-size="0.9791">interdisciplinary</text>
	
		<text transform="matrix(0.4037 -1.2383 0.6992 0.7149 -453.3831 -236.0632)" fill="#393B79" font-family="'Impact'" font-size="0.7517">problems</text>
	
		<text transform="matrix(0.4037 -1.2383 0.6992 0.7149 -451.7249 -266.1824)" fill="#5254A3" font-family="'Impact'" font-size="0.7517">goal</text>
	<text transform="matrix(0.5646 0 0 1 -477.8533 -248.4285)" fill="#9C9EDE" font-family="'Impact'" font-size="1.0748">proposing</text>
	
		<text transform="matrix(0.4037 1.2383 -0.6992 0.7149 -432.8196 -267.0095)" fill="#CEDB9C" font-family="'Impact'" font-size="0.7517">formats</text>
	
		<text transform="matrix(0.4037 -1.2383 0.6992 0.7149 -445.6077 -261.5798)" fill="#8C6D31" font-family="'Impact'" font-size="0.7517">robust</text>
	
		<text transform="matrix(0.4037 1.2383 -0.6992 0.7149 -467.8977 -245.6248)" fill="#E7BA52" font-family="'Impact'" font-size="0.7517">capture</text>
	
		<text transform="matrix(0.4037 -1.2383 0.6992 0.7149 -442.3909 -270.2312)" fill="#E7CB94" font-family="'Impact'" font-size="0.7517">patterns</text>
	
		<text transform="matrix(0.4037 -1.2383 0.6992 0.7149 -478.4167 -280.1482)" fill="#843C39" font-family="'Impact'" font-size="0.7517">particular</text>
	<text transform="matrix(0.5646 0 0 1 -453.3625 -282.1785)" fill="#AD494A" font-family="'Impact'" font-size="1.0748">state</text>
	
		<text transform="matrix(0.5369 -0.5489 0.3099 0.9508 -460.4363 -282.7317)" fill="#D6616B" font-family="'Impact'" font-size="0.9791">condition</text>
	
		<text transform="matrix(0.5369 0.5489 -0.3099 0.9508 -433.2112 -258.3093)" fill="#DE9ED6" font-family="'Impact'" font-size="0.9791">followup</text>
	
		<text transform="matrix(0.4037 -1.2383 0.6992 0.7149 -480.7815 -243.3914)" fill="#393B79" font-family="'Impact'" font-size="0.7517">validation</text>
	
		<text transform="matrix(0.4037 -1.2383 0.6992 0.7149 -477.1086 -258.2537)" fill="#5254A3" font-family="'Impact'" font-size="6.6151">noncoding</text>
	
		<text transform="matrix(0.4037 1.2383 -0.6992 0.7149 -465.7444 -277.9446)" fill="#6B6ECF" font-family="'Impact'" font-size="6.4648">role</text>
	
		<text transform="matrix(0.5369 -0.5489 0.3099 0.9508 -447.8293 -267.9299)" fill="#9C9EDE" font-family="'Impact'" font-size="7.7346">regions</text>
	
		<text transform="matrix(0.4037 1.2383 -0.6992 0.7149 -459.8289 -278.6101)" fill="#637939" font-family="'Impact'" font-size="5.713">expression</text>
	
		<text transform="matrix(0.4037 -1.2383 0.6992 0.7149 -444.8489 -250.9382)" fill="#8CA252" font-family="'Impact'" font-size="5.713">histone</text>
	
		<text transform="matrix(0.4037 -1.2383 0.6992 0.7149 -468.3538 -245.4929)" fill="#B5CF6B" font-family="'Impact'" font-size="5.3371">RNAs</text>
	
		<text transform="matrix(0.4037 1.2383 -0.6992 0.7149 -458.052 -286.1409)" fill="#8C6D31" font-family="'Impact'" font-size="4.9613">play</text>
	
		<text transform="matrix(0.4037 1.2383 -0.6992 0.7149 -456.9749 -258.9587)" fill="#BD9E39" font-family="'Impact'" font-size="4.9613">gene</text>
	
		<text transform="matrix(0.5369 -0.5489 0.3099 0.9508 -448.5657 -261.0544)" fill="#E7CB94" font-family="'Impact'" font-size="6.4619">two</text>
	
		<text transform="matrix(0.5369 0.5489 -0.3099 0.9508 -438.9993 -268.0515)" fill="#A55194" font-family="'Impact'" font-size="5.9723">one</text>
	<text transform="matrix(0.5646 0 0 1 -484.6404 -256.1667)" fill="#D6616B" font-family="'Impact'" font-size="5.8042">RNA</text>
	
		<text transform="matrix(0.5369 -0.5489 0.3099 0.9508 -450.4358 -260.946)" fill="#E7969C" font-family="'Impact'" font-size="5.2869">X</text>
	
		<text transform="matrix(0.5369 -0.5489 0.3099 0.9508 -460.9929 -259.4001)" fill="#7B4173" font-family="'Impact'" font-size="4.3079">5</text>
	<text transform="matrix(0.5646 0 0 1 -461.3132 -241.8718)" fill="#CE6DBD" font-family="'Impact'" font-size="4.7293">now</text>
	
		<text transform="matrix(0.5369 -0.5489 0.3099 0.9508 -482.4446 -290.2317)" fill="#B5CF6B" font-family="'Impact'" font-size="4.3079">thus</text>
	<text transform="matrix(0.5646 0 0 1 -484.9929 -261.2185)" fill="#6B6ECF" font-family="'Impact'" font-size="4.7293">T1D</text>
	<text transform="matrix(0.5646 0 0 1 -460.0701 -263.4763)" fill="#8CA252" font-family="'Impact'" font-size="3.4395">4</text>
	
		<text transform="matrix(0.4037 -1.2383 0.6992 0.7149 -462.2732 -260.3044)" fill="#B5CF6B" font-family="'Impact'" font-size="2.4055">6</text>
	<text transform="matrix(0.5646 0 0 1 -464.4724 -254.1248)" fill="#CEDB9C" font-family="'Impact'" font-size="3.4395">8</text>
	
		<text transform="matrix(0.4037 -1.2383 0.6992 0.7149 -457.3694 -251.782)" fill="#8C6D31" font-family="'Impact'" font-size="2.4055">30</text>
	
		<text transform="matrix(0.5369 -0.5489 0.3099 0.9508 -485.5833 -240.5974)" fill="#E7BA52" font-family="'Impact'" font-size="3.1331">case</text>
	<text transform="matrix(0.5646 0 0 1 -486.0349 -253.4802)" fill="#843C39" font-family="'Impact'" font-size="3.4395">type</text>
	
		<text transform="matrix(0.4037 1.2383 -0.6992 0.7149 -433.8137 -263.238)" fill="#D6616B" font-family="'Impact'" font-size="2.4055">PU1</text>
	
		<text transform="matrix(0.4037 -1.2383 0.6992 0.7149 -446.0657 -276.2332)" fill="#E7969C" font-family="'Impact'" font-size="2.4055">like</text>
	
		<text transform="matrix(0.4037 -1.2383 0.6992 0.7149 -465.1643 -275.4397)" fill="#7B4173" font-family="'Impact'" font-size="0.7517">7</text>
	
		<text transform="matrix(0.5369 0.5489 -0.3099 0.9508 -467.5242 -280.2678)" fill="#A55194" font-family="'Impact'" font-size="0.9791">12</text>
	
		<text transform="matrix(0.4037 1.2383 -0.6992 0.7149 -464.2356 -253.1248)" fill="#CE6DBD" font-family="'Impact'" font-size="0.7517">99</text>
	
		<text transform="matrix(0.5369 -0.5489 0.3099 0.9508 -486.3855 -244.8435)" fill="#5254A3" font-family="'Impact'" font-size="0.9791">summarize</text>
	<text transform="matrix(0.5646 0 0 1 -436.6204 -251.2224)" fill="#6B6ECF" font-family="'Impact'" font-size="1.0748">outline</text>
	<text transform="matrix(0.5646 0 0 1 -466.0115 -274.3318)" fill="#9C9EDE" font-family="'Impact'" font-size="1.0748">Past</text>
	<text transform="matrix(0.5646 0 0 1 -450.2415 -292.8191)" fill="#637939" font-family="'Impact'" font-size="1.0748">robustly</text>
	
		<text transform="matrix(0.5369 -0.5489 0.3099 0.9508 -465.4983 -260.9353)" fill="#8CA252" font-family="'Impact'" font-size="0.9791">detect</text>
	
		<text transform="matrix(0.5369 -0.5489 0.3099 0.9508 -486.4163 -285.3948)" fill="#B5CF6B" font-family="'Impact'" font-size="0.9791">eukaryotic</text>
	
		<text transform="matrix(0.4037 1.2383 -0.6992 0.7149 -469.179 -262.0886)" fill="#8C6D31" font-family="'Impact'" font-size="0.7517">fraction</text>
	
		<text transform="matrix(0.4037 -1.2383 0.6992 0.7149 -474.5129 -279.9163)" fill="#BD9E39" font-family="'Impact'" font-size="0.7517">organisms</text>
	
		<text transform="matrix(0.5369 0.5489 -0.3099 0.9508 -487.0608 -253.4167)" fill="#E7CB94" font-family="'Impact'" font-size="0.9791">complexity</text>
	
		<text transform="matrix(0.4037 1.2383 -0.6992 0.7149 -454.7014 -275.0505)" fill="#843C39" font-family="'Impact'" font-size="0.7517">yeast</text>
	
		<text transform="matrix(0.5369 0.5489 -0.3099 0.9508 -462.0857 -259.7058)" fill="#AD494A" font-family="'Impact'" font-size="0.9791">share</text>
	
		<text transform="matrix(0.4037 -1.2383 0.6992 0.7149 -447.6047 -274.8367)" fill="#D6616B" font-family="'Impact'" font-size="0.7517">low</text>
	<text transform="matrix(0.5646 0 0 1 -443.136 -294.1091)" fill="#6B6ECF" font-family="'Impact'" font-size="4.7293">PTM</text>
	
		<text transform="matrix(0.4037 1.2383 -0.6992 0.7149 -485.4836 -293.3416)" fill="#637939" font-family="'Impact'" font-size="2.4055">New</text>
	
		<text transform="matrix(0.4037 -1.2383 0.6992 0.7149 -483.2776 -269.2991)" fill="#8CA252" font-family="'Impact'" font-size="4.9613">important</text>
	<text transform="matrix(0.5646 0 0 1 -479.155 -242.946)" fill="#843C39" font-family="'Impact'" font-size="6.5566">future</text>
	
		<text transform="matrix(0.4037 1.2383 -0.6992 0.7149 -437.9153 -277.7336)" fill="#A55194" font-family="'Impact'" font-size="3.3076">plan</text>
	
		<text transform="matrix(0.5369 -0.5489 0.3099 0.9508 -444.9729 -281.7087)" fill="#E7BA52" font-family="'Impact'" font-size="6.4619">across</text>
	<text transform="matrix(0.5646 0 0 1 -441.7747 -252.5125)" fill="#E7BA52" font-family="'Impact'" font-size="5.8042">biology</text>
	<text transform="matrix(0.5646 0 0 1 -483.5427 -239.1843)" fill="#6B6ECF" font-family="'Impact'" font-size="4.7293">address</text>
	
		<text transform="matrix(0.5369 -0.5489 0.3099 0.9508 -464.5042 -280.5764)" fill="#E7CB94" font-family="'Impact'" font-size="5.9723">landscape</text>
	
		<text transform="matrix(0.5369 0.5489 -0.3099 0.9508 -460.1877 -248.8777)" fill="#6B6ECF" font-family="'Impact'" font-size="5.9723">using</text>
	
		<text transform="matrix(0.5369 -0.5489 0.3099 0.9508 -452.9739 -283.0549)" fill="#9C9EDE" font-family="'Impact'" font-size="5.2869">analysis</text>
	<text transform="matrix(0.5646 0 0 1 -464.5876 -294.2166)" fill="#DE9ED6" font-family="'Impact'" font-size="5.8042">genes</text>
	<text transform="matrix(0.5646 0 0 1 -473.0271 -239.2917)" fill="#DE9ED6" font-family="'Impact'" font-size="4.7293">coding</text>
	
		<text transform="matrix(0.4037 1.2383 -0.6992 0.7149 -436.3342 -296.7048)" fill="#637939" font-family="'Impact'" font-size="3.3076">miRNA</text>
	
		<text transform="matrix(0.4037 -1.2383 0.6992 0.7149 -482.3254 -268.5481)" fill="#7B4173" font-family="'Impact'" font-size="0.7517">undetectable</text>
	
		<text transform="matrix(0.4037 -1.2383 0.6992 0.7149 -463.1956 -240.3601)" fill="#CEDB9C" font-family="'Impact'" font-size="5.3371">different</text>
	
		<text transform="matrix(0.4037 -1.2383 0.6992 0.7149 -476.092 -277.5159)" fill="#CE6DBD" font-family="'Impact'" font-size="4.5854">genome</text>
	<text transform="matrix(0.5646 0 0 1 -445.4973 -246.6013)" fill="#637939" font-family="'Impact'" font-size="5.8042">questions</text>
	<text transform="matrix(0.5646 0 0 1 -451.9602 -239.9373)" fill="#CE6DBD" font-family="'Impact'" font-size="5.8042">experimental</text>
	
		<text transform="matrix(0.4037 1.2383 -0.6992 0.7149 -436.8069 -289.3347)" fill="#8CA252" font-family="'Impact'" font-size="3.3076">Similar</text>
	<text transform="matrix(0.5646 0 0 1 -462.6306 -238.5398)" fill="#CEDB9C" font-family="'Impact'" font-size="3.4395">genetic</text>
	
		<text transform="matrix(0.5369 -0.5489 0.3099 0.9508 -454.7122 -286.2864)" fill="#AD494A" font-family="'Impact'" font-size="3.1331">nature</text>
	
		<text transform="matrix(0.5369 -0.5489 0.3099 0.9508 -441.0198 -281.8679)" fill="#637939" font-family="'Impact'" font-size="3.1331">Unlike</text>
	<text transform="matrix(0.5646 0 0 1 -486.3044 -265.6257)" fill="#E7CB94" font-family="'Impact'" font-size="3.4395">tRNA</text>
	
		<text transform="matrix(0.4037 -1.2383 0.6992 0.7149 -484.8059 -274.8323)" fill="#E7BA52" font-family="'Impact'" font-size="2.4055">blue</text>
	<text transform="matrix(0.5646 0 0 1 -436.7512 -237.1423)" fill="#E7969C" font-family="'Impact'" font-size="3.4395">crucial</text>
	
		<text transform="matrix(0.4037 1.2383 -0.6992 0.7149 -435.4836 -279.4954)" fill="#8CA252" font-family="'Impact'" font-size="2.4055">methods</text>
	<text transform="matrix(0.5646 0 0 1 -486.3669 -295.2917)" fill="#E7BA52" font-family="'Impact'" font-size="3.4395">Figure</text>
	
		<text transform="matrix(0.5369 -0.5489 0.3099 0.9508 -466.4973 -236.9001)" fill="#A55194" font-family="'Impact'" font-size="0.9791">noncoherent</text>
	
		<text transform="matrix(0.5369 0.5489 -0.3099 0.9508 -485.5701 -239.8718)" fill="#B5CF6B" font-family="'Impact'" font-size="0.9791">standardized</text>
	
		<text transform="matrix(0.5369 0.5489 -0.3099 0.9508 -470.7268 -238.4851)" fill="#E7969C" font-family="'Impact'" font-size="0.9791">maintaining</text>
	<text transform="matrix(0.5646 0 0 1 -460.533 -292.6042)" fill="#A55194" font-family="'Impact'" font-size="1.0748">biologists</text>
	
		<text transform="matrix(0.5369 0.5489 -0.3099 0.9508 -467.1467 -296.6472)" fill="#DE9ED6" font-family="'Impact'" font-size="0.9791">following</text>
	
		<text transform="matrix(0.5369 -0.5489 0.3099 0.9508 -484.9329 -280.676)" fill="#393B79" font-family="'Impact'" font-size="0.9791">paragraphs</text>
	
		<text transform="matrix(0.4037 -1.2383 0.6992 0.7149 -450.8674 -234.8054)" fill="#CEDB9C" font-family="'Impact'" font-size="0.7517">nonprotein</text>
	
		<text transform="matrix(0.5369 0.5489 -0.3099 0.9508 -464.0891 -238.324)" fill="#E7BA52" font-family="'Impact'" font-size="0.9791">physiological</text>
	<text transform="matrix(0.5646 0 0 1 -446.2297 -296.4744)" fill="#E7969C" font-family="'Impact'" font-size="1.0748">compared</text>
	
		<text transform="matrix(0.5369 -0.5489 0.3099 0.9508 -440.2561 -236.1091)" fill="#E7969C" font-family="'Impact'" font-size="0.9791">conservation</text>
</g>
</svg>
