<?xml version="1.0" encoding="utf-8"?>
<!-- Generator: Adobe Illustrator 16.0.4, SVG Export Plug-In . SVG Version: 6.00 Build 0)  -->
<!DOCTYPE svg PUBLIC "-//W3C//DTD SVG 1.1//EN" "http://www.w3.org/Graphics/SVG/1.1/DTD/svg11.dtd">
<svg version="1.1" id="Layer_1" xmlns="http://www.w3.org/2000/svg" xmlns:xlink="http://www.w3.org/1999/xlink" x="0px" y="0px"
	 width="42.521px" height="65.196px" viewBox="113.398 412.008 42.521 65.196"
	 enable-background="new 113.398 412.008 42.521 65.196" xml:space="preserve">
<g transform="translate(480,300)">
	
		<text transform="matrix(0.4114 0.5608 -0.2375 0.9714 -343.7791 170.4951)" fill="#B5CF6B" font-family="'Impact'" font-size="3.0665">area</text>
	
		<text transform="matrix(0.3415 -1.3966 0.5915 0.8063 -339.3484 143.5391)" fill="#CEDB9C" font-family="'Impact'" font-size="6.0651">data</text>
	
		<text transform="matrix(0.3415 1.3966 -0.5915 0.8063 -336.864 159.0166)" fill="#E7969C" font-family="'Impact'" font-size="0.6665">code</text>
	
		<text transform="matrix(0.4114 -0.5608 0.2375 0.9714 -347.0408 133.7988)" fill="#7B4173" font-family="'Impact'" font-size="4.2164">use</text>
	
		<text transform="matrix(0.4114 -0.5608 0.2375 0.9714 -334.2253 160.6709)" fill="#AD494A" font-family="'Impact'" font-size="0.9583">Central</text>
	
		<text transform="matrix(0.4114 -0.5608 0.2375 0.9714 -343.2913 151.6533)" fill="#B5CF6B" font-family="'Impact'" font-size="0.9583">making</text>
	
		<text transform="matrix(0.4114 -0.5608 0.2375 0.9714 -362.8767 166.3389)" fill="#9C9EDE" font-family="'Impact'" font-size="9.5827">research</text>
	
		<text transform="matrix(0.3415 -1.3966 0.5915 0.8063 -361.0857 148.5537)" fill="#8CA252" font-family="'Impact'" font-size="5.5319">cell</text>
	
		<text transform="matrix(0.4114 -0.5608 0.2375 0.9714 -364.656 129.4092)" fill="#B5CF6B" font-family="'Impact'" font-size="4.2164">NGS</text>
	
		<text transform="matrix(0.3415 -1.3966 0.5915 0.8063 -352.5623 133.6074)" fill="#CEDB9C" font-family="'Impact'" font-size="2.1328">unique</text>
	
		<text transform="matrix(0.3415 -1.3966 0.5915 0.8063 -350.6794 166.3887)" fill="#BD9E39" font-family="'Impact'" font-size="2.1328">huge</text>
	
		<text transform="matrix(0.4114 0.5608 -0.2375 0.9714 -351.9666 134.5674)" fill="#D6616B" font-family="'Impact'" font-size="6.3246">1</text>
	
		<text transform="matrix(0.3415 -1.3966 0.5915 0.8063 -337.2927 153.8975)" fill="#E7969C" font-family="'Impact'" font-size="2.9326">2</text>
	
		<text transform="matrix(0.3415 -1.3966 0.5915 0.8063 -347.655 156.3516)" fill="#7B4173" font-family="'Impact'" font-size="3.5991">3</text>
	
		<text transform="matrix(0.3415 -1.3966 0.5915 0.8063 -336.8694 154.6416)" fill="#A55194" font-family="'Impact'" font-size="0.6665">Recent</text>
	
		<text transform="matrix(0.3415 -1.3966 0.5915 0.8063 -338.7678 145.041)" fill="#CE6DBD" font-family="'Impact'" font-size="0.6665">advances</text>
	
		<text transform="matrix(0.4114 0.5608 -0.2375 0.9714 -351.6228 137.5234)" fill="#DE9ED6" font-family="'Impact'" font-size="0.9583">nextgeneration</text>
	<text transform="matrix(0.4235 0 0 1 -352.1848 139.8633)" fill="#5254A3" font-family="'Impact'" font-size="1.0748">posed</text>
	
		<text transform="matrix(0.3415 1.3966 -0.5915 0.8063 -334.5857 140.999)" fill="#6B6ECF" font-family="'Impact'" font-size="0.6665">terms</text>
	<text transform="matrix(0.4235 0 0 1 -333.1233 160.7158)" fill="#637939" font-family="'Impact'" font-size="1.0748">interpretation</text>
	
		<text transform="matrix(0.4114 0.5608 -0.2375 0.9714 -336.8406 150.3066)" fill="#8CA252" font-family="'Impact'" font-size="0.9583">amount</text>
	
		<text transform="matrix(0.3415 1.3966 -0.5915 0.8063 -343.3987 157.876)" fill="#B5CF6B" font-family="'Impact'" font-size="0.6665">generated</text>
	
		<text transform="matrix(0.3415 1.3966 -0.5915 0.8063 -346.0007 136.79)" fill="#8C6D31" font-family="'Impact'" font-size="0.6665">lies</text>
	
		<text transform="matrix(0.4114 0.5608 -0.2375 0.9714 -360.4802 132.9141)" fill="#BD9E39" font-family="'Impact'" font-size="0.9583">intersection</text>
	
		<text transform="matrix(0.4114 -0.5608 0.2375 0.9714 -349.0857 149.0654)" fill="#843C39" font-family="'Impact'" font-size="0.9583">immense</text>
	
		<text transform="matrix(0.3415 1.3966 -0.5915 0.8063 -356.9773 170.4766)" fill="#AD494A" font-family="'Impact'" font-size="0.6665">contributions</text>
	
		<text transform="matrix(0.4114 0.5608 -0.2375 0.9714 -351.2991 122.916)" fill="#D6616B" font-family="'Impact'" font-size="0.9583">addressing</text>
	
		<text transform="matrix(0.4114 -0.5608 0.2375 0.9714 -334.3875 131.083)" fill="#E7969C" font-family="'Impact'" font-size="0.9583">big</text>
	
		<text transform="matrix(0.3415 -1.3966 0.5915 0.8063 -353.3455 156.6494)" fill="#7B4173" font-family="'Impact'" font-size="0.6665">focuses</text>
	
		<text transform="matrix(0.4114 0.5608 -0.2375 0.9714 -365.8503 161.2461)" fill="#A55194" font-family="'Impact'" font-size="0.9583">specifically</text>
	
		<text transform="matrix(0.4114 0.5608 -0.2375 0.9714 -346.4285 164.3486)" fill="#CE6DBD" font-family="'Impact'" font-size="0.9583">develop</text>
	
		<text transform="matrix(0.4114 0.5608 -0.2375 0.9714 -341.114 142.332)" fill="#DE9ED6" font-family="'Impact'" font-size="0.9583">andor</text>
	
		<text transform="matrix(0.4114 -0.5608 0.2375 0.9714 -353.5232 144.8574)" fill="#393B79" font-family="'Impact'" font-size="0.9583">statistical</text>
	
		<text transform="matrix(0.4114 -0.5608 0.2375 0.9714 -331.2224 148.748)" fill="#5254A3" font-family="'Impact'" font-size="0.9583">techniques</text>
	
		<text transform="matrix(0.4114 0.5608 -0.2375 0.9714 -330.8904 136.4082)" fill="#6B6ECF" font-family="'Impact'" font-size="0.9583">interpret</text>
	
		<text transform="matrix(0.3415 -1.3966 0.5915 0.8063 -340.3093 131.9336)" fill="#9C9EDE" font-family="'Impact'" font-size="0.6665">complex</text>
	
		<text transform="matrix(0.3415 -1.3966 0.5915 0.8063 -336.3577 126.3799)" fill="#8CA252" font-family="'Impact'" font-size="0.6665">datasets</text>
	
		<text transform="matrix(0.3415 1.3966 -0.5915 0.8063 -344.0876 143.9004)" fill="#B5CF6B" font-family="'Impact'" font-size="0.6665">despite</text>
	
		<text transform="matrix(0.4114 -0.5608 0.2375 0.9714 -333.7283 130.0283)" fill="#BD9E39" font-family="'Impact'" font-size="0.9583">arises</text>
	
		<text transform="matrix(0.4114 -0.5608 0.2375 0.9714 -356.8069 149.1211)" fill="#843C39" font-family="'Impact'" font-size="0.9583">epigenetic</text>
	<text transform="matrix(0.4235 0 0 1 -329.5271 148.1396)" fill="#E7969C" font-family="'Impact'" font-size="1.0748">identity</text>
	
		<text transform="matrix(0.3415 1.3966 -0.5915 0.8063 -345.6155 139.5811)" fill="#7B4173" font-family="'Impact'" font-size="0.6665">alterations</text>
	<text transform="matrix(0.4235 0 0 1 -339.2542 116.5391)" fill="#A55194" font-family="'Impact'" font-size="3.4395">drive</text>
	
		<text transform="matrix(0.4114 0.5608 -0.2375 0.9714 -347.28 134.3789)" fill="#CE6DBD" font-family="'Impact'" font-size="0.9583">cellular</text>
	
		<text transform="matrix(0.3415 1.3966 -0.5915 0.8063 -326.7976 140.7783)" fill="#393B79" font-family="'Impact'" font-size="0.6665">aberrant</text>
	
		<text transform="matrix(0.3415 -1.3966 0.5915 0.8063 -356.3464 145.1865)" fill="#5254A3" font-family="'Impact'" font-size="0.6665">formation</text>
	
		<text transform="matrix(0.3415 -1.3966 0.5915 0.8063 -355.3503 164.1016)" fill="#6B6ECF" font-family="'Impact'" font-size="0.6665">cancer</text>
	
		<text transform="matrix(0.3415 -1.3966 0.5915 0.8063 -354.3787 146.7949)" fill="#9C9EDE" font-family="'Impact'" font-size="4.0656">cells</text>
	
		<text transform="matrix(0.3415 -1.3966 0.5915 0.8063 -336.5007 165.6309)" fill="#637939" font-family="'Impact'" font-size="0.6665">fundamental</text>
	
		<text transform="matrix(0.3415 -1.3966 0.5915 0.8063 -334.4846 124.0049)" fill="#8CA252" font-family="'Impact'" font-size="0.6665">exploration</text>
	
		<text transform="matrix(0.4114 -0.5608 0.2375 0.9714 -357.2727 163.8242)" fill="#B5CF6B" font-family="'Impact'" font-size="4.2164">lead</text>
	
		<text transform="matrix(0.4114 -0.5608 0.2375 0.9714 -348.0056 130.7588)" fill="#CEDB9C" font-family="'Impact'" font-size="0.9583">better</text>
	
		<text transform="matrix(0.3415 -1.3966 0.5915 0.8063 -333.5544 122.5596)" fill="#8C6D31" font-family="'Impact'" font-size="0.6665">prognosis</text>
	
		<text transform="matrix(0.4114 -0.5608 0.2375 0.9714 -365.676 167.9551)" fill="#BD9E39" font-family="'Impact'" font-size="0.9583">personalized</text>
	
		<text transform="matrix(0.4114 0.5608 -0.2375 0.9714 -365.8005 141.0791)" fill="#E7BA52" font-family="'Impact'" font-size="0.9583">medicine</text>
	<text transform="matrix(0.4235 0 0 1 -332.1028 154.1592)" fill="#843C39" font-family="'Impact'" font-size="7.6314">also</text>
	
		<text transform="matrix(0.4114 -0.5608 0.2375 0.9714 -349.7942 151.5059)" fill="#AD494A" font-family="'Impact'" font-size="0.9583">raise</text>
	
		<text transform="matrix(0.4114 -0.5608 0.2375 0.9714 -339.8767 166.1631)" fill="#D6616B" font-family="'Impact'" font-size="0.9583">several</text>
	
		<text transform="matrix(0.4114 -0.5608 0.2375 0.9714 -349.3591 124.1826)" fill="#7B4173" font-family="'Impact'" font-size="4.2164">due</text>
	
		<text transform="matrix(0.4114 -0.5608 0.2375 0.9714 -357.5437 116.6104)" fill="#CE6DBD" font-family="'Impact'" font-size="0.9583">inherently</text>
	
		<text transform="matrix(0.4114 -0.5608 0.2375 0.9714 -338.1335 176.5518)" fill="#DE9ED6" font-family="'Impact'" font-size="0.9583">interdisciplinary</text>
	
		<text transform="matrix(0.3415 -1.3966 0.5915 0.8063 -341.2678 175.7676)" fill="#393B79" font-family="'Impact'" font-size="0.6665">problems</text>
	
		<text transform="matrix(0.3415 -1.3966 0.5915 0.8063 -340.0247 145.6484)" fill="#5254A3" font-family="'Impact'" font-size="0.6665">goal</text>
	<text transform="matrix(0.4235 0 0 1 -359.6208 163.4023)" fill="#9C9EDE" font-family="'Impact'" font-size="1.0748">proposing</text>
	
		<text transform="matrix(0.3415 1.3966 -0.5915 0.8063 -325.8455 144.8232)" fill="#CEDB9C" font-family="'Impact'" font-size="0.6665">formats</text>
	
		<text transform="matrix(0.3415 -1.3966 0.5915 0.8063 -335.4363 150.251)" fill="#8C6D31" font-family="'Impact'" font-size="0.6665">robust</text>
	
		<text transform="matrix(0.3415 1.3966 -0.5915 0.8063 -352.156 166.208)" fill="#E7BA52" font-family="'Impact'" font-size="0.6665">capture</text>
	
		<text transform="matrix(0.3415 -1.3966 0.5915 0.8063 -333.0247 141.5986)" fill="#E7CB94" font-family="'Impact'" font-size="0.6665">patterns</text>
	
		<text transform="matrix(0.3415 -1.3966 0.5915 0.8063 -360.0442 131.6826)" fill="#843C39" font-family="'Impact'" font-size="0.6665">particular</text>
	<text transform="matrix(0.4235 0 0 1 -341.2522 129.6523)" fill="#AD494A" font-family="'Impact'" font-size="1.0748">state</text>
	
		<text transform="matrix(0.4114 -0.5608 0.2375 0.9714 -346.5574 129.0986)" fill="#D6616B" font-family="'Impact'" font-size="0.9583">condition</text>
	
		<text transform="matrix(0.4114 0.5608 -0.2375 0.9714 -326.1384 153.5225)" fill="#DE9ED6" font-family="'Impact'" font-size="0.9583">followup</text>
	
		<text transform="matrix(0.3415 -1.3966 0.5915 0.8063 -361.8181 168.4404)" fill="#393B79" font-family="'Impact'" font-size="0.6665">validation</text>
	
		<text transform="matrix(0.3415 -1.3966 0.5915 0.8063 -359.0623 153.5771)" fill="#5254A3" font-family="'Impact'" font-size="5.8652">noncoding</text>
	
		<text transform="matrix(0.3415 1.3966 -0.5915 0.8063 -350.5408 133.8877)" fill="#6B6ECF" font-family="'Impact'" font-size="5.7319">role</text>
	
		<text transform="matrix(0.4114 -0.5608 0.2375 0.9714 -337.1023 143.9014)" fill="#9C9EDE" font-family="'Impact'" font-size="7.5703">regions</text>
	
		<text transform="matrix(0.3415 1.3966 -0.5915 0.8063 -346.1028 133.2236)" fill="#637939" font-family="'Impact'" font-size="5.0654">expression</text>
	
		<text transform="matrix(0.3415 -1.3966 0.5915 0.8063 -334.8679 160.8926)" fill="#8CA252" font-family="'Impact'" font-size="5.0654">histone</text>
	
		<text transform="matrix(0.3415 -1.3966 0.5915 0.8063 -352.4968 166.3369)" fill="#B5CF6B" font-family="'Impact'" font-size="4.7321">RNAs</text>
	
		<text transform="matrix(0.3415 1.3966 -0.5915 0.8063 -344.7708 125.6924)" fill="#8C6D31" font-family="'Impact'" font-size="4.3989">play</text>
	
		<text transform="matrix(0.3415 1.3966 -0.5915 0.8063 -343.9631 152.873)" fill="#BD9E39" font-family="'Impact'" font-size="4.3989">gene</text>
	
		<text transform="matrix(0.4114 -0.5608 0.2375 0.9714 -337.6541 150.7754)" fill="#E7CB94" font-family="'Impact'" font-size="6.3246">two</text>
	
		<text transform="matrix(0.4114 0.5608 -0.2375 0.9714 -330.4797 143.7793)" fill="#A55194" font-family="'Impact'" font-size="5.8454">one</text>
	<text transform="matrix(0.4235 0 0 1 -364.7122 155.6641)" fill="#D6616B" font-family="'Impact'" font-size="5.8042">RNA</text>
	
		<text transform="matrix(0.4114 -0.5608 0.2375 0.9714 -339.0574 150.8848)" fill="#E7969C" font-family="'Impact'" font-size="5.1746">X</text>
	
		<text transform="matrix(0.4114 -0.5608 0.2375 0.9714 -346.9753 152.4316)" fill="#7B4173" font-family="'Impact'" font-size="4.2164">5</text>
	<text transform="matrix(0.4235 0 0 1 -347.2151 169.959)" fill="#CE6DBD" font-family="'Impact'" font-size="4.7293">now</text>
	
		<text transform="matrix(0.4114 -0.5608 0.2375 0.9714 -363.0652 121.5986)" fill="#B5CF6B" font-family="'Impact'" font-size="4.2164">thus</text>
	<text transform="matrix(0.4235 0 0 1 -364.9763 150.6123)" fill="#6B6ECF" font-family="'Impact'" font-size="4.7293">T1D</text>
	<text transform="matrix(0.4235 0 0 1 -346.2825 148.3545)" fill="#8CA252" font-family="'Impact'" font-size="3.4395">4</text>
	
		<text transform="matrix(0.3415 -1.3966 0.5915 0.8063 -347.9363 151.5273)" fill="#B5CF6B" font-family="'Impact'" font-size="2.1328">6</text>
	<text transform="matrix(0.4235 0 0 1 -349.5852 157.7061)" fill="#CEDB9C" font-family="'Impact'" font-size="3.4395">8</text>
	
		<text transform="matrix(0.3415 -1.3966 0.5915 0.8063 -344.2576 160.0479)" fill="#8C6D31" font-family="'Impact'" font-size="2.1328">30</text>
	
		<text transform="matrix(0.4114 -0.5608 0.2375 0.9714 -365.4192 171.2344)" fill="#E7BA52" font-family="'Impact'" font-size="3.0665">case</text>
	<text transform="matrix(0.4235 0 0 1 -365.7581 158.3506)" fill="#843C39" font-family="'Impact'" font-size="3.4395">type</text>
	
		<text transform="matrix(0.3415 1.3966 -0.5915 0.8063 -326.5916 148.5928)" fill="#D6616B" font-family="'Impact'" font-size="2.1328">PU1</text>
	
		<text transform="matrix(0.3415 -1.3966 0.5915 0.8063 -335.7805 135.5977)" fill="#E7969C" font-family="'Impact'" font-size="2.1328">like</text>
	
		<text transform="matrix(0.3415 -1.3966 0.5915 0.8063 -350.1047 136.3916)" fill="#7B4173" font-family="'Impact'" font-size="0.6665">7</text>
	
		<text transform="matrix(0.4114 0.5608 -0.2375 0.9714 -351.8733 131.5645)" fill="#A55194" font-family="'Impact'" font-size="0.9583">12</text>
	
		<text transform="matrix(0.3415 1.3966 -0.5915 0.8063 -349.4099 158.707)" fill="#CE6DBD" font-family="'Impact'" font-size="0.6665">99</text>
	
		<text transform="matrix(0.4114 -0.5608 0.2375 0.9714 -366.0203 166.9873)" fill="#5254A3" font-family="'Impact'" font-size="0.9583">summarize</text>
	<text transform="matrix(0.4235 0 0 1 -328.6946 160.6084)" fill="#6B6ECF" font-family="'Impact'" font-size="1.0748">outline</text>
	<text transform="matrix(0.4235 0 0 1 -350.7395 137.499)" fill="#9C9EDE" font-family="'Impact'" font-size="1.0748">Past</text>
	<text transform="matrix(0.4235 0 0 1 -338.9109 119.0117)" fill="#637939" font-family="'Impact'" font-size="1.0748">robustly</text>
	
		<text transform="matrix(0.4114 -0.5608 0.2375 0.9714 -350.3538 150.8955)" fill="#8CA252" font-family="'Impact'" font-size="0.9583">detect</text>
	
		<text transform="matrix(0.4114 -0.5608 0.2375 0.9714 -366.0442 126.4365)" fill="#B5CF6B" font-family="'Impact'" font-size="0.9583">eukaryotic</text>
	
		<text transform="matrix(0.3415 1.3966 -0.5915 0.8063 -353.116 149.7432)" fill="#8C6D31" font-family="'Impact'" font-size="0.6665">fraction</text>
	
		<text transform="matrix(0.3415 -1.3966 0.5915 0.8063 -357.116 131.916)" fill="#BD9E39" font-family="'Impact'" font-size="0.6665">organisms</text>
	
		<text transform="matrix(0.4114 0.5608 -0.2375 0.9714 -366.5271 158.415)" fill="#E7CB94" font-family="'Impact'" font-size="0.9583">complexity</text>
	
		<text transform="matrix(0.3415 1.3966 -0.5915 0.8063 -342.2581 136.7822)" fill="#843C39" font-family="'Impact'" font-size="0.6665">yeast</text>
	
		<text transform="matrix(0.4114 0.5608 -0.2375 0.9714 -347.7952 152.126)" fill="#AD494A" font-family="'Impact'" font-size="0.9583">share</text>
	
		<text transform="matrix(0.3415 -1.3966 0.5915 0.8063 -336.9343 136.9932)" fill="#D6616B" font-family="'Impact'" font-size="0.6665">low</text>
	<text transform="matrix(0.4235 0 0 1 -333.5813 117.7217)" fill="#6B6ECF" font-family="'Impact'" font-size="4.7293">PTM</text>
	
		<text transform="matrix(0.3415 1.3966 -0.5915 0.8063 -365.3445 118.4893)" fill="#637939" font-family="'Impact'" font-size="2.1328">New</text>
	
		<text transform="matrix(0.3415 -1.3966 0.5915 0.8063 -363.6902 142.5312)" fill="#8CA252" font-family="'Impact'" font-size="4.3989">important</text>
	<text transform="matrix(0.4235 0 0 1 -360.5979 168.8848)" fill="#843C39" font-family="'Impact'" font-size="6.5566">future</text>
	
		<text transform="matrix(0.3415 1.3966 -0.5915 0.8063 -329.6682 134.0986)" fill="#A55194" font-family="'Impact'" font-size="2.9326">plan</text>
	
		<text transform="matrix(0.4114 -0.5608 0.2375 0.9714 -334.9607 130.1221)" fill="#E7BA52" font-family="'Impact'" font-size="6.3246">across</text>
	<text transform="matrix(0.4235 0 0 1 -332.5603 159.3184)" fill="#E7BA52" font-family="'Impact'" font-size="5.8042">biology</text>
	<text transform="matrix(0.4235 0 0 1 -363.8884 172.6465)" fill="#6B6ECF" font-family="'Impact'" font-size="4.7293">address</text>
	
		<text transform="matrix(0.4114 -0.5608 0.2375 0.9714 -349.6091 131.2539)" fill="#E7CB94" font-family="'Impact'" font-size="5.8454">landscape</text>
	
		<text transform="matrix(0.4114 0.5608 -0.2375 0.9714 -346.3723 162.9521)" fill="#6B6ECF" font-family="'Impact'" font-size="5.8454">using</text>
	
		<text transform="matrix(0.4114 -0.5608 0.2375 0.9714 -340.9607 128.7754)" fill="#9C9EDE" font-family="'Impact'" font-size="5.1746">analysis</text>
	<text transform="matrix(0.4235 0 0 1 -349.6711 117.6143)" fill="#DE9ED6" font-family="'Impact'" font-size="5.8042">genes</text>
	<text transform="matrix(0.4235 0 0 1 -356.0012 172.5391)" fill="#DE9ED6" font-family="'Impact'" font-size="4.7293">coding</text>
	
		<text transform="matrix(0.3415 1.3966 -0.5915 0.8063 -328.4822 115.1279)" fill="#637939" font-family="'Impact'" font-size="2.9326">miRNA</text>
	
		<text transform="matrix(0.3415 -1.3966 0.5915 0.8063 -362.9763 143.2832)" fill="#7B4173" font-family="'Impact'" font-size="0.6665">undetectable</text>
	
		<text transform="matrix(0.3415 -1.3966 0.5915 0.8063 -348.6277 171.4707)" fill="#CEDB9C" font-family="'Impact'" font-size="4.7321">different</text>
	
		<text transform="matrix(0.3415 -1.3966 0.5915 0.8063 -358.3005 134.3164)" fill="#CE6DBD" font-family="'Impact'" font-size="4.0656">genome</text>
	<text transform="matrix(0.4235 0 0 1 -335.3523 165.2295)" fill="#637939" font-family="'Impact'" font-size="5.8042">questions</text>
	<text transform="matrix(0.4235 0 0 1 -340.1995 171.8936)" fill="#CE6DBD" font-family="'Impact'" font-size="5.8042">experimental</text>
	
		<text transform="matrix(0.3415 1.3966 -0.5915 0.8063 -328.8347 122.4951)" fill="#8CA252" font-family="'Impact'" font-size="2.9326">Similar</text>
	<text transform="matrix(0.4235 0 0 1 -348.2034 173.291)" fill="#CEDB9C" font-family="'Impact'" font-size="3.4395">genetic</text>
	
		<text transform="matrix(0.4114 -0.5608 0.2375 0.9714 -342.2644 125.5459)" fill="#AD494A" font-family="'Impact'" font-size="3.0665">nature</text>
	
		<text transform="matrix(0.4114 -0.5608 0.2375 0.9714 -331.9949 129.9619)" fill="#637939" font-family="'Impact'" font-size="3.0665">Unlike</text>
	<text transform="matrix(0.4235 0 0 1 -365.9597 146.2051)" fill="#E7CB94" font-family="'Impact'" font-size="3.4395">tRNA</text>
	
		<text transform="matrix(0.3415 -1.3966 0.5915 0.8063 -364.8362 136.9971)" fill="#E7BA52" font-family="'Impact'" font-size="2.1328">blue</text>
	<text transform="matrix(0.4235 0 0 1 -328.7922 174.6885)" fill="#E7969C" font-family="'Impact'" font-size="3.4395">crucial</text>
	
		<text transform="matrix(0.3415 1.3966 -0.5915 0.8063 -327.8425 132.3369)" fill="#8CA252" font-family="'Impact'" font-size="2.1328">methods</text>
	<text transform="matrix(0.4235 0 0 1 -366.0066 116.5391)" fill="#E7BA52" font-family="'Impact'" font-size="3.4395">Figure</text>
	
		<text transform="matrix(0.4114 -0.5608 0.2375 0.9714 -351.1042 174.9307)" fill="#A55194" font-family="'Impact'" font-size="0.9583">noncoherent</text>
	
		<text transform="matrix(0.4114 0.5608 -0.2375 0.9714 -365.4094 171.959)" fill="#B5CF6B" font-family="'Impact'" font-size="0.9583">standardized</text>
	
		<text transform="matrix(0.4114 0.5608 -0.2375 0.9714 -354.2761 173.3467)" fill="#E7969C" font-family="'Impact'" font-size="0.9583">maintaining</text>
	<text transform="matrix(0.4235 0 0 1 -346.6306 119.2266)" fill="#A55194" font-family="'Impact'" font-size="1.0748">biologists</text>
	
		<text transform="matrix(0.4114 0.5608 -0.2375 0.9714 -351.5911 115.1846)" fill="#DE9ED6" font-family="'Impact'" font-size="0.9583">following</text>
	
		<text transform="matrix(0.4114 -0.5608 0.2375 0.9714 -364.9309 131.1543)" fill="#393B79" font-family="'Impact'" font-size="0.9583">paragraphs</text>
	
		<text transform="matrix(0.3415 -1.3966 0.5915 0.8063 -339.3811 177.0264)" fill="#CEDB9C" font-family="'Impact'" font-size="0.6665">nonprotein</text>
	
		<text transform="matrix(0.4114 0.5608 -0.2375 0.9714 -349.2976 173.5068)" fill="#E7BA52" font-family="'Impact'" font-size="0.9583">physiological</text>
	<text transform="matrix(0.4235 0 0 1 -335.9021 115.3564)" fill="#E7969C" font-family="'Impact'" font-size="1.0748">compared</text>
	
		<text transform="matrix(0.4114 -0.5608 0.2375 0.9714 -331.4226 175.7217)" fill="#E7969C" font-family="'Impact'" font-size="0.9583">conservation</text>
</g>
</svg>
